<svg xmlns="http://www.w3.org/2000/svg" viewBox="0 0 16 16" width="16" height="16" shape-rendering="crispEdges">
<style>.f{visibility:hidden;animation:s 1200ms steps(1,end) infinite}.f0{animation-delay:0ms}.f1{animation-delay:600ms}@keyframes s{0%{visibility:visible}50.000%{visibility:hidden}}@media (prefers-reduced-motion:reduce){.f{animation:none}.f0{visibility:visible}}</style>
<g class="f f0">
<rect x="7" y="2" width="2" height="1" fill="#000000"/>
<rect x="5" y="3" width="2" height="1" fill="#000000"/>
<rect x="7" y="3" width="2" height="1" fill="#aa00aa"/>
<rect x="9" y="3" width="2" height="1" fill="#000000"/>
<rect x="4" y="4" width="1" height="1" fill="#000000"/>
<rect x="5" y="4" width="6" height="1" fill="#aa00aa"/>
<rect x="11" y="4" width="1" height="1" fill="#000000"/>
<rect x="3" y="5" width="1" height="1" fill="#000000"/>
<rect x="4" y="5" width="8" height="1" fill="#aa00aa"/>
<rect x="12" y="5" width="1" height="1" fill="#000000"/>
<rect x="2" y="6" width="1" height="1" fill="#000000"/>
<rect x="3" y="6" width="6" height="1" fill="#aa00aa"/>
<rect x="9" y="6" width="1" height="1" fill="#ff55ff"/>
<rect x="10" y="6" width="3" height="1" fill="#aa00aa"/>
<rect x="13" y="6" width="1" height="1" fill="#000000"/>
<rect x="2" y="7" width="1" height="1" fill="#000000"/>
<rect x="3" y="7" width="3" height="1" fill="#aa00aa"/>
<rect x="6" y="7" width="1" height="1" fill="#ff55ff"/>
<rect x="7" y="7" width="6" height="1" fill="#aa00aa"/>
<rect x="13" y="7" width="1" height="1" fill="#000000"/>
<rect x="2" y="8" width="1" height="1" fill="#000000"/>
<rect x="3" y="8" width="10" height="1" fill="#aa00aa"/>
<rect x="13" y="8" width="1" height="1" fill="#000000"/>
<rect x="2" y="9" width="1" height="1" fill="#000000"/>
<rect x="3" y="9" width="2" height="1" fill="#aa00aa"/>
<rect x="5" y="9" width="1" height="1" fill="#ff55ff"/>
<rect x="6" y="9" width="4" height="1" fill="#aa00aa"/>
<rect x="10" y="9" width="1" height="1" fill="#ff55ff"/>
<rect x="11" y="9" width="2" height="1" fill="#aa00aa"/>
<rect x="13" y="9" width="1" height="1" fill="#000000"/>
<rect x="3" y="10" width="1" height="1" fill="#000000"/>
<rect x="4" y="10" width="8" height="1" fill="#aa00aa"/>
<rect x="12" y="10" width="1" height="1" fill="#000000"/>
<rect x="4" y="11" width="1" height="1" fill="#000000"/>
<rect x="5" y="11" width="6" height="1" fill="#aa00aa"/>
<rect x="11" y="11" width="1" height="1" fill="#000000"/>
<rect x="5" y="12" width="2" height="1" fill="#000000"/>
<rect x="7" y="12" width="2" height="1" fill="#aa00aa"/>
<rect x="9" y="12" width="2" height="1" fill="#000000"/>
<rect x="5" y="13" width="1" height="1" fill="#000000"/>
<rect x="6" y="13" width="1" height="1" fill="#55ff55"/>
<rect x="7" y="13" width="2" height="1" fill="#00aa00"/>
<rect x="9" y="13" width="1" height="1" fill="#000000"/>
<rect x="10" y="13" width="1" height="1" fill="#55ff55"/>
<rect x="11" y="13" width="1" height="1" fill="#000000"/>
<rect x="4" y="14" width="1" height="1" fill="#000000"/>
<rect x="5" y="14" width="1" height="1" fill="#55ff55"/>
<rect x="6" y="14" width="1" height="1" fill="#000000"/>
<rect x="7" y="14" width="2" height="1" fill="#00aa00"/>
<rect x="9" y="14" width="2" height="1" fill="#000000"/>
<rect x="11" y="14" width="1" height="1" fill="#55ff55"/>
<rect x="12" y="14" width="1" height="1" fill="#000000"/>
<rect x="5" y="15" width="2" height="1" fill="#000000"/>
<rect x="7" y="15" width="2" height="1" fill="#00aa00"/>
<rect x="9" y="15" width="1" height="1" fill="#000000"/>
<rect x="11" y="15" width="1" height="1" fill="#000000"/>
</g>
<g class="f f1">
<rect x="9" y="0" width="1" height="1" fill="#000000"/>
<rect x="7" y="1" width="2" height="1" fill="#000000"/>
<rect x="9" y="1" width="1" height="1" fill="#ff55ff"/>
<rect x="10" y="1" width="1" height="1" fill="#000000"/>
<rect x="6" y="2" width="1" height="1" fill="#000000"/>
<rect x="7" y="2" width="1" height="1" fill="#ff55ff"/>
<rect x="8" y="2" width="2" height="1" fill="#000000"/>
<rect x="7" y="3" width="1" height="1" fill="#000000"/>
<rect x="8" y="3" width="1" height="1" fill="#ffffff"/>
<rect x="9" y="3" width="1" height="1" fill="#000000"/>
<rect x="4" y="4" width="8" height="1" fill="#000000"/>
<rect x="3" y="5" width="1" height="1" fill="#000000"/>
<rect x="4" y="5" width="2" height="1" fill="#aa00aa"/>
<rect x="6" y="5" width="4" height="1" fill="#000000"/>
<rect x="10" y="5" width="2" height="1" fill="#aa00aa"/>
<rect x="12" y="5" width="1" height="1" fill="#000000"/>
<rect x="3" y="6" width="1" height="1" fill="#000000"/>
<rect x="4" y="6" width="5" height="1" fill="#aa00aa"/>
<rect x="9" y="6" width="1" height="1" fill="#ff55ff"/>
<rect x="10" y="6" width="2" height="1" fill="#aa00aa"/>
<rect x="12" y="6" width="1" height="1" fill="#000000"/>
<rect x="2" y="7" width="1" height="1" fill="#000000"/>
<rect x="3" y="7" width="3" height="1" fill="#aa00aa"/>
<rect x="6" y="7" width="1" height="1" fill="#ff55ff"/>
<rect x="7" y="7" width="6" height="1" fill="#aa00aa"/>
<rect x="13" y="7" width="1" height="1" fill="#000000"/>
<rect x="2" y="8" width="1" height="1" fill="#000000"/>
<rect x="3" y="8" width="10" height="1" fill="#aa00aa"/>
<rect x="13" y="8" width="1" height="1" fill="#000000"/>
<rect x="3" y="9" width="1" height="1" fill="#000000"/>
<rect x="4" y="9" width="1" height="1" fill="#aa00aa"/>
<rect x="5" y="9" width="1" height="1" fill="#ff55ff"/>
<rect x="6" y="9" width="4" height="1" fill="#aa00aa"/>
<rect x="10" y="9" width="1" height="1" fill="#ff55ff"/>
<rect x="11" y="9" width="1" height="1" fill="#aa00aa"/>
<rect x="12" y="9" width="1" height="1" fill="#000000"/>
<rect x="3" y="10" width="1" height="1" fill="#000000"/>
<rect x="4" y="10" width="8" height="1" fill="#aa00aa"/>
<rect x="12" y="10" width="1" height="1" fill="#000000"/>
<rect x="4" y="11" width="2" height="1" fill="#000000"/>
<rect x="6" y="11" width="4" height="1" fill="#aa00aa"/>
<rect x="10" y="11" width="2" height="1" fill="#000000"/>
<rect x="6" y="12" width="1" height="1" fill="#000000"/>
<rect x="7" y="12" width="2" height="1" fill="#00aa00"/>
<rect x="9" y="12" width="2" height="1" fill="#000000"/>
<rect x="5" y="13" width="1" height="1" fill="#000000"/>
<rect x="6" y="13" width="1" height="1" fill="#55ff55"/>
<rect x="7" y="13" width="2" height="1" fill="#00aa00"/>
<rect x="9" y="13" width="1" height="1" fill="#000000"/>
<rect x="10" y="13" width="1" height="1" fill="#55ff55"/>
<rect x="11" y="13" width="1" height="1" fill="#000000"/>
<rect x="4" y="14" width="1" height="1" fill="#000000"/>
<rect x="5" y="14" width="1" height="1" fill="#55ff55"/>
<rect x="6" y="14" width="1" height="1" fill="#000000"/>
<rect x="7" y="14" width="2" height="1" fill="#00aa00"/>
<rect x="9" y="14" width="2" height="1" fill="#000000"/>
<rect x="11" y="14" width="1" height="1" fill="#55ff55"/>
<rect x="12" y="14" width="1" height="1" fill="#000000"/>
<rect x="5" y="15" width="2" height="1" fill="#000000"/>
<rect x="7" y="15" width="2" height="1" fill="#00aa00"/>
<rect x="9" y="15" width="1" height="1" fill="#000000"/>
<rect x="11" y="15" width="1" height="1" fill="#000000"/>
</g>
</svg>
